<?xml version="1.0" standalone="no"?>
<!DOCTYPE svg PUBLIC "-//W3C//DTD SVG 20010904//EN"
 "http://www.w3.org/TR/2001/REC-SVG-20010904/DTD/svg10.dtd">
<svg version="1.0" xmlns="http://www.w3.org/2000/svg"
 width="900.000000pt" height="900.000000pt" viewBox="0 0 900.000000 900.000000"
 preserveAspectRatio="xMidYMid meet">
<metadata>
</metadata>
<g transform="translate(0.000000,900.000000) scale(0.100000,-0.100000)"
fill="#ffffff" stroke="#000">
<path d="M0 4500 l0 -4500 4500 0 4500 0 0 4500 0 4500 -4500 0 -4500 0 0
-4500z m3862 2552 c2 -5 34 -32 71 -60 38 -29 87 -67 110 -86 80 -65 302 -241
323 -256 34 -24 188 -147 288 -230 17 -14 41 -32 52 -40 12 -8 46 -34 75 -58
103 -83 165 -132 329 -261 91 -71 179 -141 195 -154 17 -14 91 -73 165 -131
74 -59 144 -115 155 -124 11 -10 48 -40 83 -66 288 -219 464 -507 534 -876 16
-84 16 -348 0 -425 -36 -173 -64 -258 -129 -389 -56 -114 -91 -169 -157 -251
-49 -61 -189 -199 -232 -229 -32 -21 -252 -197 -333 -264 -24 -20 -67 -55 -96
-77 -28 -22 -118 -94 -200 -160 -81 -66 -162 -131 -179 -144 -17 -14 -84 -68
-150 -120 -65 -53 -153 -122 -195 -155 -42 -32 -78 -61 -81 -65 -7 -9 -100
-83 -126 -101 -21 -14 -232 -183 -319 -255 -22 -18 -60 -49 -85 -69 -25 -20
-61 -49 -80 -65 -19 -15 -41 -26 -47 -24 -10 4 -13 108 -13 477 0 363 3 476
13 488 6 9 35 33 63 54 44 34 245 193 414 329 30 24 102 81 160 127 58 45 112
88 120 95 21 17 257 204 440 348 330 260 359 292 424 473 35 99 37 268 5 364
-52 152 -131 255 -283 369 -33 24 -76 58 -97 74 -21 17 -94 72 -161 124 -68
52 -164 128 -214 168 -51 40 -97 73 -102 73 -6 0 -15 6 -19 13 -4 7 -46 42
-92 77 -47 35 -93 72 -103 82 -10 10 -22 18 -27 18 -4 0 -20 11 -34 24 -15 14
-44 37 -64 53 -178 133 -432 336 -437 349 -8 21 -8 949 1 957 9 10 31 9 35 -1z
m-176 -1797 c26 -22 79 -67 118 -100 39 -34 139 -117 221 -185 83 -68 171
-142 196 -164 25 -23 73 -65 107 -94 83 -71 116 -134 117 -222 0 -48 -6 -77
-23 -111 -32 -66 -41 -75 -198 -204 -26 -22 -64 -54 -84 -71 -19 -16 -48 -40
-65 -53 -16 -12 -46 -37 -65 -54 -19 -18 -91 -79 -160 -137 -69 -57 -153 -128
-188 -157 -34 -29 -68 -53 -75 -53 -6 1 -25 12 -42 26 -16 14 -52 44 -80 66
-27 22 -66 54 -85 72 -19 17 -70 60 -114 96 -43 36 -98 81 -121 100 -23 19
-64 53 -90 75 -298 246 -325 280 -325 398 0 123 28 162 244 339 12 9 44 36 71
60 123 105 469 396 502 421 35 26 37 27 63 10 15 -10 49 -36 76 -58z"/>
</g>
</svg>
